<svg xmlns="http://www.w3.org/2000/svg" viewBox="0 0 86.55 86.56"><defs><style>.cls-1{fill:#ffce00;}.cls-2{fill:#562912;}</style></defs><g id="Layer_2" data-name="Layer 2"><g id="Layer_1-2" data-name="Layer 1"><path class="cls-1" d="M86.55,43.28A43.28,43.28,0,1,1,43.28,0,43.28,43.28,0,0,1,86.55,43.28Z"/><path class="cls-2" d="M63,57.7H23.53a2.12,2.12,0,1,1,0-4.23H63a2.12,2.12,0,0,1,0,4.23Z"/><path class="cls-2" d="M27.81,37.41H18.27a1.42,1.42,0,0,1,0-2.83h9.54a1.42,1.42,0,0,1,0,2.83Z"/><path class="cls-2" d="M68.29,37.41H58.74a1.42,1.42,0,0,1,0-2.83h9.55a1.42,1.42,0,0,1,0,2.83Z"/></g></g></svg>