<svg xmlns="http://www.w3.org/2000/svg" viewBox="0 0 86.56 86.55"><defs><style>.cls-1{fill:#ffce00;}.cls-2{fill:#261f11;}.cls-3{fill:#483d23;}.cls-4{fill:#562912;}</style></defs><g id="Layer_2" data-name="Layer 2"><g id="Layer_1-2" data-name="Layer 1"><circle class="cls-1" cx="43.28" cy="43.28" r="43.28" transform="translate(-1.19 1.22) rotate(-1.59)"/><path class="cls-2" d="M50.84,25.38a27.35,27.35,0,0,1-7.56,1.1,27.35,27.35,0,0,1-7.56-1.1,67.75,67.75,0,0,0-20.19-2.7A81.13,81.13,0,0,0,2.72,24.05,2.47,2.47,0,0,0,.8,27l.33,1.42a2.44,2.44,0,0,0,1.63,1.71,1.55,1.55,0,0,1,1,.9c.55,1.49,3.55,10.32,5.17,13.59,1.33,2.67,4.93,5,13.3,5,11.9,0,16-7.82,17.92-12.91.2-.53.5-1.55.77-2.53a6.57,6.57,0,0,1,1.63-3,1.84,1.84,0,0,1,.75-.21,1.8,1.8,0,0,1,.76.21,6.67,6.67,0,0,1,1.62,3c.27,1,.56,2,.76,2.53,1.89,5.09,6,13,17.92,12.91,8.37,0,12-2.32,13.3-5,1.62-3.27,4.61-12.1,5.17-13.59a1.57,1.57,0,0,1,1-.9,2.46,2.46,0,0,0,1.63-1.71L85.76,27a2.48,2.48,0,0,0-1.93-3A81,81,0,0,0,71,22.68,67.63,67.63,0,0,0,50.84,25.38Z"/><path class="cls-3" d="M48.86,33.28C49.11,39,54.73,44.59,60,45.86c7.72,1.87,13.54.2,16.83-6.9,1-2.14,3.12-6.81,3-9.3-.23-4.33-5.73-3.57-9.23-3.66C70.19,26,48.52,25.39,48.86,33.28Z"/><path class="cls-3" d="M37.91,33.28C37.66,39,32,44.59,26.78,45.86c-7.72,1.87-13.54.2-16.83-6.9-1-2.14-3.12-6.81-3-9.3.24-4.33,5.73-3.57,9.24-3.66C16.58,26,38.25,25.39,37.91,33.28Z"/><path class="cls-4" d="M52.51,65.42A23.45,23.45,0,0,1,49,65.15,2.11,2.11,0,1,1,49.63,61c6.7,1,12.65-1.53,15.16-6.46a2.12,2.12,0,0,1,3.77,1.92C65.68,62.09,59.59,65.42,52.51,65.42Z"/></g></g></svg>