<svg xmlns="http://www.w3.org/2000/svg" viewBox="0 0 86.55 86.55"><defs><style>.cls-1{fill:#ffce00;}.cls-2{fill:#562912;}.cls-3{fill:#fff;}.cls-4{opacity:0.4;}.cls-5{fill:#e55725;}</style></defs><g id="Layer_2" data-name="Layer 2"><g id="Layer_1-2" data-name="Layer 1"><path class="cls-1" d="M86.55,43.28A43.28,43.28,0,1,1,43.28,0,43.27,43.27,0,0,1,86.55,43.28Z"/><path class="cls-2" d="M52,64.19a1.93,1.93,0,0,1-1.34-.53,10.81,10.81,0,0,0-7-2.77,10.61,10.61,0,0,0-7.76,2.76,2,2,0,1,1-2.71-2.85,15.08,15.08,0,0,1,20.12,0A2,2,0,0,1,52,64.19Z"/><path class="cls-2" d="M17.14,29.43a1.22,1.22,0,0,1-.8-2.14,18,18,0,0,1,10-4.23,1.23,1.23,0,0,1,1.32,1.11,1.21,1.21,0,0,1-1.1,1.32,15.54,15.54,0,0,0-8.65,3.65A1.19,1.19,0,0,1,17.14,29.43Z"/><path class="cls-2" d="M69.42,29.43a1.22,1.22,0,0,1-.8-.29A15.57,15.57,0,0,0,60,25.49a1.21,1.21,0,0,1-1.1-1.32,1.23,1.23,0,0,1,1.32-1.11,18,18,0,0,1,10,4.23A1.22,1.22,0,0,1,70.34,29,1.21,1.21,0,0,1,69.42,29.43Z"/><path class="cls-3" d="M70.85,40.77a9.15,9.15,0,1,1-9.13-9.45A9.3,9.3,0,0,1,70.85,40.77Z"/><path class="cls-2" d="M65.62,40.77a3.91,3.91,0,1,1-3.9-4A4,4,0,0,1,65.62,40.77Z"/><path class="cls-3" d="M34,40.77a9.3,9.3,0,0,1-9.14,9.46,9.46,9.46,0,0,1,0-18.91A9.3,9.3,0,0,1,34,40.77Z"/><path class="cls-2" d="M28.74,40.77a3.91,3.91,0,1,1-3.9-4A4,4,0,0,1,28.74,40.77Z"/><g class="cls-4"><path class="cls-5" d="M77.29,58.91a6.67,6.67,0,1,1-6.67-6.67A6.67,6.67,0,0,1,77.29,58.91Z"/></g><g class="cls-4"><path class="cls-5" d="M22.6,58.91a6.67,6.67,0,1,1-6.67-6.67A6.67,6.67,0,0,1,22.6,58.91Z"/></g></g></g></svg>